<?xml version="1.0" encoding="UTF-8"?>
<svg width="115px" height="101px" viewBox="0 0 115 101" version="1.1" xmlns="http://www.w3.org/2000/svg" xmlns:xlink="http://www.w3.org/1999/xlink">
    <!-- Generator: Sketch 44 (41411) - http://www.bohemiancoding.com/sketch -->
    <title>Page 1</title>
    <desc>Created with Sketch.</desc>
    <defs></defs>
    <g id="Page-1" stroke="none" stroke-width="1" fill="none" fill-rule="evenodd">
        <g id="No-Leads-Copy" transform="translate(-130.000000, -233.000000)" fill="#BDC1C9">
            <path d="M244.572211,295.409408 C244.750448,296.830724 244.672749,298.274972 244.348261,299.66891 L237.949765,327.08201 C237.721252,327.93666 237.323628,328.731944 236.779765,329.42201 C236.203903,330.171534 235.513825,330.820509 234.732265,331.34151 C233.914177,331.894522 233.023012,332.324123 232.086076,332.616576 C231.126313,332.922789 230.120827,333.082751 229.115329,333.087314 L145.542229,333.087314 C144.532191,333.082743 143.531233,332.922789 142.566919,332.616576 C141.630006,332.324076 140.738794,331.894464 139.925289,331.34151 C139.143764,330.820497 138.4491,330.17151 137.877789,329.42201 C137.329352,328.731898 136.931739,327.936695 136.707789,327.08201 L130.318536,299.66891 C129.989474,298.270409 129.916349,296.826161 130.094587,295.400282 C130.254549,294.11141 130.615599,292.859159 131.173186,291.689159 L150.93566,250.519199 C152.64035,246.9452 156.241844,244.669199 160.19972,244.669199 L167.653907,244.669199 L168.485707,256.286948 L161.054335,256.286948 L144.592435,290.591348 L161.044975,290.591348 C161.712237,290.591348 162.379477,290.664473 163.033039,290.810723 C164.3356,291.107798 165.565036,291.674511 166.634416,292.474346 C167.164566,292.867396 167.644453,293.319859 168.074101,293.817974 L177.434101,304.864412 L197.196571,304.864412 L206.556571,293.817974 C206.986183,293.319812 207.470633,292.867349 207.996256,292.474346 C209.065706,291.674546 210.295072,291.107786 211.597633,290.810723 C212.251183,290.664473 212.918446,290.591348 213.59026,290.591348 L230.07556,290.591348 L213.61366,256.286948 L206.182288,256.286948 L207.014087,244.669199 L214.468274,244.669199 C218.42615,244.669199 222.027527,246.9452 223.732334,250.519199 L243.494804,291.702029 C244.05238,292.872029 244.413442,294.12428 244.573404,295.408589 L244.572211,295.409408 Z M170.789671,269.509118 C170.392058,269.582243 169.999008,269.696506 169.619671,269.847319 C169.244908,269.988994 168.888421,270.180956 168.554783,270.409469 C167.800683,270.921344 167.229407,271.66172 166.927781,272.525531 C166.776957,272.987131 166.712981,273.471581 166.740394,273.951527 C166.772382,274.440551 166.891219,274.915864 167.092307,275.359154 C167.307107,275.829891 167.599607,276.264078 167.960669,276.643463 L183.298199,292.963793 C183.540424,293.21973 183.810074,293.448243 184.102574,293.644768 C184.408786,293.845867 184.733274,294.014967 185.076049,294.147505 C185.427962,294.28918 185.793587,294.394305 186.163786,294.462855 C186.936174,294.609105 187.731352,294.609105 188.503786,294.462855 C188.873986,294.394305 189.239611,294.284617 189.591524,294.147505 C189.934299,294.014967 190.258786,293.845867 190.564999,293.644768 C190.857499,293.448243 191.127149,293.224293 191.369374,292.963793 L206.706904,276.583793 C206.894291,276.414692 207.063391,276.23188 207.223354,276.035355 C207.360466,275.829692 207.483866,275.61488 207.584404,275.390942 C207.689517,275.171567 207.771791,274.947618 207.831204,274.714542 C207.895191,274.481455 207.940891,274.248367 207.959178,274.010717 C207.972891,273.832479 207.972891,273.65423 207.959178,273.471417 C207.940891,273.11493 207.867766,272.758442 207.748941,272.420242 C207.689528,272.246567 207.611829,272.077467 207.529566,271.917505 C207.323903,271.52903 207.058828,271.172543 206.743466,270.861767 C206.418979,270.550992 206.053354,270.281342 205.655729,270.06653 C205.239829,269.847155 204.791941,269.678055 204.334916,269.563793 C203.845891,269.444967 203.347729,269.390118 202.849601,269.390118 L196.446542,269.390118 L197.616542,238.467018 C197.643967,237.744905 197.520567,237.027333 197.255492,236.360082 C196.985842,235.706531 196.588229,235.112394 196.085492,234.618771 C195.578191,234.116033 194.979479,233.718421 194.316803,233.448771 C193.622115,233.151696 192.872555,233.000883 192.11849,233.000883 L182.56193,233.000883 C181.789543,232.987171 181.026305,233.133421 180.313307,233.421358 C179.655182,233.695582 179.05193,234.093195 178.544618,234.591358 C178.04188,235.08952 177.644268,235.683658 177.374618,236.337232 C177.109543,237.004494 176.986143,237.722044 177.013567,238.444168 L178.183567,269.367268 L172.123318,269.367268 C171.675431,269.371842 171.227543,269.417543 170.788816,269.508943 L170.789671,269.509118 Z" id="Page-1"></path>
        </g>
    </g>
</svg>