<?xml version="1.0" encoding="UTF-8" standalone="no"?>
<svg width="123px" height="123px" viewBox="0 0 123 123" version="1.1" xmlns="http://www.w3.org/2000/svg" xmlns:xlink="http://www.w3.org/1999/xlink">
    <!-- Generator: Sketch 44 (41411) - http://www.bohemiancoding.com/sketch -->
    <title>Group 2</title>
    <desc>Created with Sketch.</desc>
    <defs></defs>
    <g id="Page-1" stroke="none" stroke-width="1" fill="none" fill-rule="evenodd">
        <g id="Get-Started-Page" transform="translate(-126.000000, -140.000000)" fill="#5890FF">
            <g id="Group-2" transform="translate(126.000000, 140.000000)">
                <path d="M61.2,-2.84217094e-14 C27.33872,-2.84217094e-14 0,27.33872 0,61.2 C0,95.06128 27.33872,122.4 61.2,122.4 C95.06128,122.4 122.4,95.06128 122.4,61.2 C122.4,27.33872 95.06128,-2.84217094e-14 61.2,-2.84217094e-14 Z M57.8,64.6 L57.9381216,30.6 L64.5999456,30.6 L64.5999456,64.6 L71.3999456,64.6 L61.1999456,78.2 L50.9999456,64.6 L57.8,64.6 Z M91.8,91.8 L30.6,91.8 L30.6,78.2 L37.4,78.2 L37.4,85 L85,85 L85,78.2 L91.8,78.2 L91.8,91.8 Z" id="Page-1"></path>
            </g>
        </g>
    </g>
</svg>