<?xml version="1.0" encoding="UTF-8" standalone="no"?>
<svg width="62px" height="64px" viewBox="0 0 62 64" version="1.1" xmlns="http://www.w3.org/2000/svg" xmlns:xlink="http://www.w3.org/1999/xlink">
    <!-- Generator: Sketch 44 (41411) - http://www.bohemiancoding.com/sketch -->
    <title>Call</title>
    <desc>Created with Sketch.</desc>
    <defs></defs>
    <g id="Page-1" stroke="none" stroke-width="1" fill="none" fill-rule="evenodd">
        <g id="View-Lead" transform="translate(-158.000000, -221.000000)">
            <g id="Info" transform="translate(0.000000, 53.000000)">
                <g id="Call" transform="translate(158.374963, 168.700070)">
                    <ellipse id="Oval" fill="#5890FF" cx="30.748324" cy="31.3160478" rx="30.748324" ry="31.3160478"></ellipse>
                    <path d="M25.3346094,36.3394447 C25.3346094,36.3394447 35.9130506,46.1732893 41.874902,43.0732236 C41.874902,43.0732236 43.5225505,41.6985495 43.6821318,40.3480256 C43.841713,38.9975017 42.4728102,38.0916515 41.9438251,37.7838547 C40.6773625,37.0435641 39.3747152,36.3537837 38.0824064,35.6513757 C37.6740368,35.428815 37.2312056,35.1778422 36.7487436,35.3009609 C36.4696049,35.3735694 36.1818508,35.4524916 35.9268352,35.5756103 C35.0170498,36.0112611 34.2709569,36.4216568 33.285356,36.830474 C33.285356,36.830474 32.2793632,36.5309083 28.5264984,33.0504373 C24.5392949,29.3521409 25.0781371,27.9770439 25.0781371,27.9770439 C25.5967837,27.3030479 26.0689072,26.597483 26.4617691,25.8540355 C26.6306308,25.5336112 26.8632464,25.224236 26.9614618,24.8753997 C27.0614004,24.5249849 26.856354,24.2740121 26.6840462,23.9662154 C26.3015228,23.2780134 25.8931532,22.602439 25.4692759,21.9347568 C24.7386907,20.7809136 23.9925977,19.5781386 23.0604123,18.5474141 C22.9621968,18.4400798 22.7330274,18.1180771 22.5452118,18.1307046 C20.4723484,18.2585587 18.4305005,20.1574279 18.4305005,20.1574279 C15.2221285,25.5304543 25.3346094,36.3394447 25.3346094,36.3394447 Z" id="Call-Icon" fill="#FFFFFF"></path>
                </g>
            </g>
        </g>
    </g>
</svg>