<?xml version="1.0" encoding="UTF-8" standalone="no"?>
<svg width="63px" height="64px" viewBox="0 0 63 64" version="1.1" xmlns="http://www.w3.org/2000/svg" xmlns:xlink="http://www.w3.org/1999/xlink">
    <!-- Generator: Sketch 44 (41411) - http://www.bohemiancoding.com/sketch -->
    <title>Mail</title>
    <desc>Created with Sketch.</desc>
    <defs></defs>
    <g id="Page-1" stroke="none" stroke-width="1" fill="none" fill-rule="evenodd">
        <g id="View-Lead" transform="translate(-279.000000, -221.000000)">
            <g id="Info" transform="translate(0.000000, 53.000000)">
                <g id="Mail" transform="translate(279.749926, 168.700070)">
                    <ellipse id="Oval" fill="#5890FF" cx="30.748324" cy="31.3160478" rx="30.748324" ry="31.3160478"></ellipse>
                    <path d="M31.0367109,35.0508986 C30.886206,35.209127 30.6127077,35.209127 30.4622028,35.054195 C25.2689727,29.6167402 21.1907739,25.2572167 19.2487745,23.0749826 L42.5042174,23.0749826 L31.0367109,35.0508986 Z M17.8016613,24.0284738 C18.9539142,25.383305 21.018907,27.6149854 24.6504459,31.4437843 L17.8016613,38.5970289 L17.8016613,24.0284738 Z M36.8586633,31.4572997 L43.6945012,24.3172408 L43.6945012,38.5973586 L36.8586633,31.4572997 Z M32.2271566,36.2941457 L35.6677322,32.7010412 L43.0230549,40.381714 L18.4745641,40.381714 L25.8363602,32.6928002 C26.8672382,33.7773243 28.0081628,34.9722788 29.2704625,36.2941457 C29.6653357,36.7061989 30.1896755,36.9336523 30.7496187,36.9336523 C31.3079435,36.9336523 31.8322833,36.7061989 32.2271566,36.2941457 Z" id="Mail-Icon" fill="#FFFFFF"></path>
                </g>
            </g>
        </g>
    </g>
</svg>