<?xml version="1.0" encoding="UTF-8"?>
<svg width="62px" height="64px" viewBox="0 0 62 64" version="1.1" xmlns="http://www.w3.org/2000/svg" xmlns:xlink="http://www.w3.org/1999/xlink">
    <!-- Generator: Sketch 44.1 (41455) - http://www.bohemiancoding.com/sketch -->
    <title>Group 4</title>
    <desc>Created with Sketch.</desc>
    <defs></defs>
    <g id="Page-1" stroke="none" stroke-width="1" fill="none" fill-rule="evenodd">
        <g id="View-Lead" transform="translate(-302.000000, -69.000000)">
            <g id="np_right_762665_FFFFFF" transform="translate(332.788600, 100.896704) rotate(-24.000000) translate(-332.788600, -100.896704) translate(301.288600, 68.896704)">
                <g id="Group-4">
                    <path d="M31.5738481,63.2455156 C48.5556785,63.2455156 62.3221721,49.2248434 62.3221721,31.9294678 C62.3221721,14.6340922 48.5556785,0.613419993 31.5738481,0.613419993 C14.5920176,0.613419993 0.825524055,14.6340922 0.825524055,31.9294678 C0.825524055,49.2248434 14.5920176,63.2455156 31.5738481,63.2455156 Z" id="Oval" fill="#5890FF"></path>
                    <path d="M23.0575575,42.9416629 C22.7881055,42.6437618 22.7512802,42.203594 22.9663448,41.8646903 L28.9093705,32.5249155 L22.9663448,23.1851407 C22.7512845,22.846237 22.7881033,22.4060692 23.0575575,22.1081681 C23.3270095,21.8094315 23.761329,21.7290972 24.1186346,21.9073323 L43.7561977,31.7256854 C44.0591331,31.8779864 44.2499217,32.1867616 44.2499217,32.5248512 C44.2499217,32.8629409 44.0591288,33.1717031 43.7561977,33.324017 L24.1186346,43.1423701 C23.9922762,43.2059692 23.8558664,43.2360935 23.7203049,43.2360935 C23.473475,43.2362221 23.2307797,43.1341311 23.0575575,42.9416629 Z" id="Shape" fill="#FFFFFF" fill-rule="nonzero"></path>
                </g>
            </g>
        </g>
    </g>
</svg>