<?xml version="1.0" encoding="UTF-8" standalone="no"?>
<svg width="62px" height="64px" viewBox="0 0 62 64" version="1.1" xmlns="http://www.w3.org/2000/svg" xmlns:xlink="http://www.w3.org/1999/xlink">
    <!-- Generator: Sketch 44 (41411) - http://www.bohemiancoding.com/sketch -->
    <title>Mobile</title>
    <desc>Created with Sketch.</desc>
    <defs></defs>
    <g id="Page-1" stroke="none" stroke-width="1" fill="none" fill-rule="evenodd">
        <g id="View-Lead" transform="translate(-37.000000, -221.000000)">
            <g id="Info" transform="translate(0.000000, 53.000000)">
                <g id="Mobile" transform="translate(37.000000, 168.700070)">
                    <path d="M30.748324,62.6320956 C47.7301544,62.6320956 61.496648,48.6114234 61.496648,31.3160478 C61.496648,14.0206722 47.7301544,0 30.748324,0 C13.7664936,0 0,14.0206722 0,31.3160478 C0,48.6114234 13.7664936,62.6320956 30.748324,62.6320956 Z" id="Oval" fill="#5890FF"></path>
                    <path d="M30.748324,19.7785565 C37.8981185,19.7785565 43.6949867,24.5685398 43.6949867,30.4770541 C43.6949867,36.3855685 37.8981185,41.1755517 30.748324,41.1755517 C29.571796,41.1755517 27.1977017,40.7017634 27.1847551,40.7229292 C26.3933903,42.0172993 22.0675866,42.802062 21.6549118,42.849278 C21.2438552,42.8981222 20.9104787,42.5155096 21.2697485,42.2924547 C21.6274001,42.0693997 22.9657614,40.8678335 23.2926646,40.120518 C23.6195678,39.3732025 23.202038,38.8717358 22.9075014,38.5509926 C19.803539,36.5972265 17.8016613,33.9498734 17.8016613,30.4770541 C17.8016613,24.5685398 23.5985295,19.7785565 30.748324,19.7785565 Z" id="Mobile-Icon" fill="#FFFFFF"></path>
                </g>
            </g>
        </g>
    </g>
</svg>