<?xml version="1.0" encoding="UTF-8" standalone="no"?>
<svg width="126px" height="109px" viewBox="0 0 126 109" version="1.1" xmlns="http://www.w3.org/2000/svg" xmlns:xlink="http://www.w3.org/1999/xlink">
    <!-- Generator: Sketch 44 (41411) - http://www.bohemiancoding.com/sketch -->
    <title>Group 2</title>
    <desc>Created with Sketch.</desc>
    <defs></defs>
    <g id="Page-1" stroke="none" stroke-width="1" fill="none" fill-rule="evenodd">
        <g id="Subscription-Page" transform="translate(-125.000000, -89.000000)" fill="#5890FF">
            <g id="Group-2" transform="translate(125.000000, 89.000000)">
                <g id="Page-1">
                    <path d="M112.971772,25.7574783 L61.7028016,25.7574783 C61.7298487,26.3277102 61.7460797,26.8979283 61.7460797,27.479046 C61.7460797,30.5256773 61.3457607,33.4854169 60.604618,36.3040444 L112.970429,36.3040444 C114.133523,36.3040444 115.112729,37.2870049 115.112729,38.4546486 L115.112729,45.7101744 L56.5356455,45.7101744 C53.917355,49.9135079 50.4225617,53.5141607 46.3058101,56.2511795 L115.107605,56.2511795 L115.107605,95.3580023 C115.107605,96.5256042 114.12844,97.5086065 112.965305,97.5086065 L25.4784487,97.5086065 C24.3153549,97.5086065 23.336148,96.52021 23.336148,95.3580023 L23.336148,61.7204902 C19.6250335,61.2805958 16.0924324,60.2487534 12.8304407,58.7118132 L12.8304407,95.3523022 C12.8304407,102.352575 18.5053424,108.043911 25.4730476,108.043911 L112.959904,108.043911 C119.933148,108.043911 125.60251,102.352436 125.60251,95.3523022 L125.607912,38.4486704 C125.613326,31.4539586 119.938411,25.7570612 112.970706,25.7570612 L112.971772,25.7574783 Z" id="Fill-1"></path>
                    <polygon id="Fill-2" points="91.1817672 86.5552482 108.930636 86.5552482 108.930636 76.0142432 91.1817672 76.0142432"></polygon>
                    <path d="M53.806106,27.4800192 C53.806106,12.8544095 41.9533072,0.962064823 27.3905375,0.962064823 C12.8213973,0.962064823 0.974971848,12.8553827 0.974971848,27.4800192 C0.974971848,42.1046558 12.8277679,53.9979736 27.3905375,53.9979736 C41.9596777,53.9979736 53.806106,42.0992337 53.806106,27.4800192 Z M24.3063669,44.385667 L24.3063669,41.5290852 L23.51113,41.4476155 C21.0388079,41.1706465 18.7127311,40.4918069 17.1437787,39.5849357 C16.5324703,39.2428049 16.2998488,38.5042255 16.5811634,37.86879 L17.8145824,35.109944 C17.9660627,34.7678132 18.2527783,34.5071381 18.6044043,34.3822226 C18.7450546,34.3387768 18.89112,34.3116248 19.0317703,34.3116248 C19.2535758,34.3116248 19.4699663,34.3659426 19.6701258,34.4745502 C21.5527578,35.4792407 24.0790911,36.081977 26.4215097,36.081977 C29.180506,36.081977 31.187502,34.9469491 31.187502,33.3937566 C31.187502,32.3890662 30.6032407,31.1725269 26.3133491,29.7714157 C21.6663196,28.305101 16.9274713,26.1653409 16.9274713,21.3646097 C16.9274713,17.7260027 19.5673663,14.8748429 23.9926734,13.750673 L24.6634909,13.5823255 L24.6634909,10.5736485 C24.6634909,9.83506912 25.2747992,9.23226322 26.005112,9.23226322 L29.1860871,9.23226322 C29.9272298,9.23226322 30.5277083,9.83506912 30.5277083,10.5736485 L30.5277083,13.2781351 L31.3175302,13.3758987 C33.2055633,13.5985638 34.8825379,14.0655963 36.4243462,14.798698 C36.7489389,14.9507654 36.9977776,15.2222985 37.1113809,15.5644293 C37.2358002,15.8957021 37.2195831,16.2758568 37.0681028,16.5908357 L35.7859907,19.3170104 C35.5641853,19.7840567 35.0881262,20.0881777 34.5687889,20.0881777 C34.3794455,20.0881777 34.1901021,20.0447318 34.0115886,19.9632622 C33.1784886,19.5776855 31.2255867,18.6870387 28.1095634,18.6870387 C25.2802142,18.6870387 24.0198174,19.7840428 24.0198174,20.8810192 C24.0198174,22.1029388 25.3343915,22.9338876 29.4566549,24.2969054 C33.8440158,25.7361099 38.3231954,27.9029802 38.3231954,33.1164817 C38.3231954,35.9295482 36.3811512,39.7148284 30.9009663,41.0996734 L30.2301488,41.2788927 L30.2301488,44.3961496 C30.2301488,45.1401649 29.6188405,45.7429708 28.8885277,45.7429708 L25.6535415,45.7429708 C24.9015827,45.7321128 24.3065054,45.134729 24.3065054,44.3852916 L24.3063669,44.385667 Z" id="Fill-3"></path>
                </g>
            </g>
        </g>
    </g>
</svg>